Patient4_TMGait_0pt4_03_right_14_EMG.mot
version=1
nRows=37
nColumns=33
inDegrees=no
endheader
time	1LAddLong	2LGlutMax	3LGlutMed	4LIliopsoas	5LSemiMemb	6LBicFemLong	7LRecFem	8LVastMed	9LVastLat	10LGasMed	11LTibAnt	12lTibPost	13LPeroneusLong	14LSol	15LExtDigLong	16LFlexDigLong	17RAddLong	18RGlutMax	19RGlutMed	20RIliopsoas	21RSemiMemb	22RBicFemLong	23RRecFem	24RVastMed	25RVastLat	26RGasMed	27RTibAnt	28RTibPost	29RPeroneusLong	30RSol	31RExtDigLong	32RFlexDigLong
17.39	0.015564	-0.28412	-0.043945	0.009613	0.058899	-0.008087	0.071106	0.013885	0.00412	-0.031433	0.22415	0.028381	0.060577	0.12634	-0.20935	-0.009918	0.094299	0.17456	0.14282	0.019989	0.066376	-0.061035	0.22369	-0.035858	0.002899	-0.004425	0.29556	0.00824	0.073547	0.072784	0.002136	-0.001068
17.391	0.022125	-0.31433	-0.09079	0.000153	0.09201	0.014954	0.096436	0.011139	0.006409	0.000153	0.068207	0.020447	-0.030975	0.029602	-0.30701	-0.003662	0.099182	0.18448	0.20767	-0.024567	0.073853	-0.045319	0.34988	0.050507	0.030975	0.003357	0.35965	0.011749	0.21881	0.041962	0.001526	0.005951
17.392	0.014648	-0.28961	0.029297	-0.002747	0.065918	0.10544	0.15411	0.014648	0.030975	0.042267	0.12283	0.018768	0.27496	-0.023346	0.11765	-0.006409	0.1413	0.1561	0.19119	-0.049744	0.071106	-0.041199	0.44357	0.11581	0.040436	0.006561	0.2124	0.002136	0.29755	-0.12253	-0.00351	-0.000153
17.393	0.01358	-0.33066	0.10773	-0.007172	0.062256	0.11673	0.1416	0.009918	-0.014496	0.04425	-0.001221	0.011902	0.11368	0.02655	0.16785	-0.004578	0.24078	0.092316	0.1831	-0.037537	0.07309	-0.048218	0.38345	0.028381	0.001526	-0.008698	0.025635	0.001984	-0.087433	-0.13626	0.000916	0.002747
17.394	-0.019531	-0.36758	0.000153	-0.001221	0.025787	0.065308	0.12192	0.009308	-0.044098	0.001831	-0.26474	0.018921	0.16724	0.079803	-0.090027	-0.007019	0.31174	0.096741	0.28854	-0.034637	0.063477	-0.06012	0.11169	-0.041199	-0.013275	-0.009155	-0.11749	0.002899	-0.35934	-0.097351	-0.000916	-0.006409
17.395	-0.025177	-0.36743	-0.015869	-0.005188	0.020142	0.02182	0.08255	0.007782	0.051575	-0.003967	-0.22736	0.014038	-0.51498	0.052185	-0.14206	0.003204	0.31906	0.11078	0.41107	-0.002899	0.04303	-0.074615	0.11215	-0.010834	-0.026245	-0.002747	-0.35416	0.002289	-0.29556	-0.049286	-0.000916	-0.000153
17.396	0.008698	-0.35309	-0.048523	-0.002136	-0.001526	0.010834	0.1416	0.003967	0.056763	-0.011902	-0.058746	0.014038	-0.20416	-0.001526	0.052185	-0.000305	0.16464	0.088959	0.52475	-0.028992	0.010529	-0.057831	0.031586	0.003967	-0.040283	-0.005188	-0.10468	-0.001984	-0.25757	0.015106	-0.008087	-0.004883
17.397	-0.010376	-0.35019	-0.19318	0.021057	0.001526	0.020752	0.1561	0.001984	0.046539	-0.0383	-0.045166	0.011139	0.33814	0.063019	0.052643	0.00946	0.012207	0.12177	0.48584	-0.19943	-0.002899	-0.068817	0.041046	0.012817	-0.038605	-0.001068	-0.013885	0.000305	-0.20081	-0.03418	-0.000305	-0.005188
17.398	-0.001984	-0.3479	-0.15579	0.01236	0.015411	0.003967	0.10941	-0.010376	0.088806	-0.027771	-0.020905	0.009766	-0.18249	0.073242	-0.18585	0.007019	-0.10117	0.10437	0.25574	-0.32684	-0.018616	-0.067139	0.13123	-0.01709	-0.019531	0.005188	-0.040894	-0.000458	-0.048981	-0.10208	-0.002441	-0.009308
17.399	-0.007019	-0.34393	-0.005493	0.022125	0.00824	0.018158	0.13107	-0.001678	0.076599	0.030518	0.002594	0.016174	-0.36224	-0.19943	-0.4097	-0.009918	-0.21881	0.063934	0.20233	-0.33905	-0.032196	-0.069733	0.027008	0.016785	-0.001068	0.008087	-0.22797	-0.001221	0.003662	-0.071259	-0.002136	-0.000153
17.4	0.003357	-0.3447	0.09079	0.022583	0.028076	0.016937	0.15045	0.004578	0.084839	-0.032196	-0.028534	0.008087	0.19043	-0.12146	-0.168	-0.00351	-0.25345	0.046539	0.24292	-0.33493	-0.015259	-0.030823	-0.061493	0.016174	0.000763	0.001373	-0.36941	-0.002136	0.103	0.078125	-0.005493	0.001068
17.401	0.006256	-0.36728	-0.052948	-0.03067	0.018463	-0.000153	0.065308	0.007477	0.10284	-0.010376	0.035706	0.01236	0.15839	0.050354	0.099182	-0.008545	-0.23727	0.039978	0.18005	-0.22614	0.017395	-0.008087	-0.27878	-0.049591	-0.010223	-0.002441	-0.32989	-0.006714	0.24399	0.18387	-0.003357	-0.004272
17.402	0.000458	-0.33203	0.16281	0.006866	0.049591	0.016479	-0.02243	0.010071	0.17609	0.004425	0.063629	0.011444	-0.7164	0.075684	0.15533	-0.001984	-0.16296	0.080719	0.38467	0.062408	0.051727	0.030518	-0.2771	-0.027618	0.014496	-0.005798	-0.39963	-0.011444	0.26977	0.20065	-0.000916	-0.011749
17.403	0.011139	-0.36118	-0.000458	-0.003052	0.038147	0.029144	-0.067596	0.007172	0.16251	-0.045166	-0.009766	0.016174	-0.3537	-0.051422	-0.006714	0.001373	-0.071564	0.052032	0.4126	0.39902	0.092468	0.029907	-0.088196	0.006866	0.0177	-0.000305	-0.29511	-0.001068	0.39093	0.13107	-0.001373	-0.005798
17.404	0.024872	-0.3569	-0.1236	0.011292	0.023804	0.016937	-0.037079	0.00824	0.18143	-0.012207	-0.038757	0.016022	0.17944	-0.16037	-0.12299	0.00351	-0.042267	0.080109	0.27817	0.38788	0.10498	0.030518	-0.017395	0.01236	0.029449	-0.00351	-0.016022	-0.014038	-0.06546	0.028229	-0.000763	-0.016174
17.405	0.01236	-0.30716	-0.023651	-0.014343	0.019836	0.020142	-0.040588	0.01297	0.14664	0.015411	-0.007172	0.010223	0.17624	-0.088501	-0.012207	0.000916	-0.028687	0.10132	0.2182	0.19287	0.11398	0.012207	0.11612	0.08194	0.032349	-0.012665	0.22003	-0.00824	0.00412	-0.082245	0.006866	-0.013123
17.406	0.001678	-0.31693	0.048828	-0.014191	0.020142	0.029907	-0.14267	0.018311	0.20004	0.028229	0.007172	0.005798	-0.039825	-0.13001	0.033264	0.007629	-0.016174	0.11826	0.2977	0.13428	0.11963	0.019836	0.15198	0.069122	0.007324	0	0.45883	-0.00885	0.12024	-0.054169	-0.003357	-0.004883
17.407	0.007477	-0.29816	0.051727	-0.003204	0.020447	0.004578	-0.12238	0.012817	0.11948	0.001068	-0.015564	0.010681	-0.1326	0.095215	0.13046	0.011444	-0.01236	0.14389	0.43533	0.037994	0.1088	-0.007935	0.13779	0.067596	-0.010529	0.002594	0.59204	-0.009918	-0.7399	-0.075684	0.001526	-0.018463
17.408	0.010376	-0.28122	0.072479	-0.018616	0.010071	0.014801	-0.11108	0.011902	-0.027924	-0.016937	0.013123	0.006104	0.045013	0.063782	0.12589	0.005646	0.003967	0.090027	0.60394	0.041046	0.093536	-0.019226	0.26123	0.042267	-0.003204	-0.006104	0.30441	-0.006561	-0.62149	-0.063477	0.003815	-0.00412
17.409	-0.006256	-0.24429	0.1088	-0.01709	0.019073	0.016174	-0.11032	0.00824	-0.1944	0.014343	0.11932	0.009918	-0.16495	0.0737	0.16739	0.002747	0.011139	0.053711	0.62286	0.20279	0.099335	0.022583	0.26688	0.068665	0.014801	-0.007324	-0.26154	-0.005646	-0.078583	0.053253	-0.003815	-0.009003
17.41	-0.012512	-0.23086	0.15869	0.002594	0.009613	0.005951	-0.059357	0.001678	-0.13779	0.02121	0.13748	0.010986	-0.20264	0.10635	0.19562	0.000305	0.005188	0.048065	0.68298	0.3093	0.090179	-0.01358	0.21164	0.10941	0.02121	0.001068	-0.22705	-0.007935	-0.023041	0.13825	-0.000458	-0.009918
17.411	-0.007629	-0.2356	0.06424	0.031891	-0.003052	-0.005035	-0.00351	-0.002594	-0.075989	0.024872	0.064087	0.006256	-0.10468	0.12833	0.042419	-0.012207	-0.032043	-0.052948	0.22842	0.27817	0.096741	-0.019226	0.22797	0.18448	0.023346	0.000916	0.24292	-0.007629	0.045624	0.14114	-0.003967	0.000153
17.412	-0.003204	-0.20111	-0.004425	0.028839	-0.007019	0.002594	0.055847	0.003204	-0.059052	-0.024109	-0.084076	0.007324	0.15015	0.20477	-0.06134	-0.000458	-0.04837	-0.048981	-0.078583	0.11993	0.084839	-0.009003	0.18158	0.14252	0.019989	-0.000305	0.48416	0.002289	-0.081024	0.037994	-0.001221	-0.006104
17.413	-0.004578	-0.1767	-0.019073	0.00473	-0.009613	-0.025635	0.061951	0.010071	-0.11078	-0.014343	-0.0383	0.004883	0.30395	0.12482	-0.11292	-0.016479	-0.038147	-0.072784	-0.19043	-0.001221	0.072174	0.001526	0.17975	0.056763	0.009766	-0.006104	0.30456	-0.00946	-0.29831	0.006714	-0.002594	-0.00885
17.414	-0.005188	-0.11078	-0.070496	-0.006714	-0.008545	-0.072937	-0.017548	0.014801	-0.090027	-0.002899	0.060272	0.016479	0.22476	0.014801	0.094299	-0.014496	-0.014496	-0.034943	0.014954	0.028992	0.069885	-0.009613	0.13229	-0.009003	0.003967	-0.005493	0.16953	-0.007019	-0.16464	0.013885	-0.001678	-0.007935
17.415	0.000458	-0.075378	-0.082855	0.009918	-0.002289	-0.06012	-0.028076	0.003662	0.011749	0.016937	0.1149	0.02182	-0.20401	-0.062408	-0.070343	-0.004272	0.065765	-0.09491	0.168	0.01297	0.041046	-0.015411	0.11459	-0.019836	-0.011444	-0.005493	0.19165	0.00351	0.2417	0.019531	-0.001831	-0.011902
17.416	0.002594	-0.058289	-0.063782	0.012665	-0.01709	-0.057526	0.02533	0.002289	0.030975	-0.023499	0.12421	0.028687	0.1236	-0.039978	0.55557	-0.003967	0.14236	-0.07843	0.30823	-0.012207	0.012817	-0.008087	0.14877	-0.066528	-0.003967	-0.007324	-0.17731	-0.004272	0.26871	0.04715	-0.001526	-0.007172
17.417	-0.005646	-0.041046	0.043945	-0.001831	0.003052	-0.054321	0.083771	0.011749	-0.051727	-0.042725	0.14023	0.044403	-0.34058	0.006866	0.027161	0.006866	0.08316	-0.034485	0.46539	-0.040741	0.002747	-0.027466	0.29648	-0.058136	0.001221	-0.000763	-0.018616	0.004425	0.22095	-0.018311	0.000305	0.00061
17.418	-0.004272	-0.03067	0.24796	-0.003967	0.022736	0.000305	0.13947	0.016479	-0.24612	-0.058594	-0.086365	0.062714	-0.2182	0.22675	-0.068512	-0.003052	0.001831	-0.077667	0.5574	-0.080414	0.000305	-0.022278	0.40115	-0.019226	0.035095	0.000153	0.53497	-0.000916	-0.10162	-0.050201	-0.001831	-0.005646
17.419	-0.002747	-0.060272	0.29129	0.002136	0.041962	0.019531	0.11704	0.027924	-0.24109	-0.035553	0.011749	0.048523	-0.023956	0.10727	-0.82001	-0.011749	-0.039673	-0.071259	0.51224	-0.076141	-0.002136	-0.006104	0.45639	-0.004883	0.028076	0.005341	0.8847	-0.001678	-0.1413	-0.085144	0.001068	-0.006561
17.42	-0.015564	-0.045013	0.14755	0.00412	0.018463	0.052643	0.019989	0.028534	-0.16449	-0.014191	0.016327	0.043335	0.14496	0.021362	-0.35736	-0.003967	-0.092926	-0.048981	0.18234	0.001373	-0.010071	-0.025482	0.62103	-0.038605	0.045166	0.002747	0.68527	0.000763	-0.19089	-0.16281	-0.003662	-0.000763
17.421	-0.012665	-0.1004	-0.13412	-0.005341	0.035706	0.082703	0.021057	0.014343	0.042725	0.028076	-0.09201	0.033722	0.51285	-0.084686	-0.13412	0.000763	-0.13458	-0.081177	-0.16052	0.000305	-0.017395	-0.018768	0.58472	-0.10513	0.019836	-0.004883	-0.097961	0.00061	0.31128	-0.1268	-0.00351	-0.00885
17.422	-0.007324	-0.056	-0.12421	-0.01709	0.0177	0.032501	-0.072937	0.00061	0.15579	0.046844	-0.17532	0.024109	0.78201	-0.15778	-0.090942	-0.006714	-0.092773	-0.11368	-0.08606	-0.075836	0.003967	-0.009918	0.26779	-0.1294	0.001831	-0.002441	-0.64301	-0.000763	0.068207	-0.064087	-0.001068	-0.008698
17.423	0.005646	-0.016022	-0.066071	-0.00412	0.008698	0.035553	-0.1326	-0.024414	0.24658	0.014648	-0.11566	0.012207	-0.34714	-0.063629	0.09201	0.006866	-0.046844	-0.08606	0.35172	-0.21637	0.038757	0.000305	0.22873	-0.12421	-0.00061	-0.005341	-0.45853	-0.001373	0.49606	-0.009613	-0.002136	-0.005493
17.424	0.005035	-0.021362	-0.096283	0.029449	0.005493	0.00412	-0.1944	-0.016937	0.26916	0.032501	-0.045471	0.009003	-0.43533	-0.023956	0.066376	-0.009918	-0.022583	-0.039673	0.45548	-0.19913	0.072174	0.041962	0.2507	-0.092468	-0.001068	0.001984	-0.40558	-0.003204	0.86212	-0.058746	-0.003204	-0.002594
17.425	0.005188	0.010529	0.097809	0.016174	-0.011444	0.000305	-0.071106	-0.014954	0.31082	0.040741	0.068207	-0.007782	-0.90378	-0.019379	-0.1207	-0.010681	-0.025787	-0.070953	0.51529	-0.11871	0.065765	0.009613	0.11108	-0.09079	0.000763	0.007782	-0.28183	-0.002289	0.44556	-0.066681	-0.003357	-0.009918
17.426	0.007324	-0.010223	0.037994	0.030975	-0.015106	0.030212	0.007324	0.002747	0.20462	-0.028381	0.11963	-0.011139	0.27023	0.1471	0.53314	0	-0.031586	-0.048218	0.41534	-0.055237	0.007629	-0.027466	-0.1004	-0.081024	-0.003815	-0.005951	-0.12756	-0.001526	0.080566	0.061188	-0.001678	-0.001984
